0
SECTION
2
HEADER
9
$INSUNITS
70
4
9
$ACADVER
1
AC1014
9
$HANDSEED
5
FFFF
0
ENDSEC
0
SECTION
2
TABLES
0
TABLE
2
VPORT
5
8
100
AcDbSymbolTable
0
ENDTAB
0
TABLE
2
LTYPE
5
5
100
AcDbSymbolTable
0
LTYPE
5
14
100
AcDbSymbolTableRecord
100
AcDbLinetypeTableRecord
2
BYBLOCK
70
0
0
LTYPE
5
15
100
AcDbSymbolTableRecord
100
AcDbLinetypeTableRecord
2
BYLAYER
70
0
0
ENDTAB
0
TABLE
2
LAYER
5
2
100
AcDbSymbolTable
70
2
0
LAYER
5
50
100
AcDbSymbolTableRecord
100
AcDbLayerTableRecord
2
0
70
0
6
CONTINUOUS
0
ENDTAB
0
TABLE
2
STYLE
5
3
100
AcDbSymbolTable
70
1
0
STYLE
5
11
100
AcDbSymbolTableRecord
100
AcDbTextStyleTableRecord
2
STANDARD
70
0
0
ENDTAB
0
TABLE
2
VIEW
5
6
100
AcDbSymbolTable
70
0
0
ENDTAB
0
TABLE
2
UCS
5
7
100
AcDbSymbolTable
70
0
0
ENDTAB
0
TABLE
2
APPID
5
9
100
AcDbSymbolTable
70
2
0
APPID
5
12
100
AcDbSymbolTableRecord
100
AcDbRegAppTableRecord
2
ACAD
70
0
0
ENDTAB
0
TABLE
2
DIMSTYLE
5
A
100
AcDbSymbolTable
70
1
0
ENDTAB
0
TABLE
2
BLOCK_RECORD
5
1
100
AcDbSymbolTable
70
1
0
BLOCK_RECORD
5
1F
100
AcDbSymbolTableRecord
100
AcDbBlockTableRecord
2
*MODEL_SPACE
0
BLOCK_RECORD
5
1B
100
AcDbSymbolTableRecord
100
AcDbBlockTableRecord
2
*PAPER_SPACE
0
ENDTAB
0
ENDSEC
0
SECTION
2
BLOCKS
0
BLOCK
5
20
100
AcDbEntity
100
AcDbBlockBegin
2
*MODEL_SPACE
0
ENDBLK
5
21
100
AcDbEntity
100
AcDbBlockEnd
0
BLOCK
5
1C
100
AcDbEntity
100
AcDbBlockBegin
2
*PAPER_SPACE
0
ENDBLK
5
1D
100
AcDbEntity
100
AcDbBlockEnd
0
ENDSEC
0
SECTION
2
ENTITIES
0
LWPOLYLINE
5
100
100
AcDbEntity
8
0
100
AcDbPolyline
90
50
70
1
43
0.0
10
122.37034898201509
20
-61.432046670716389
42
0.37388467948479881
10
123.13780673528981
20
-60.76490582396044
10
136.20229948054816
20
32.193790293958706
42
0.38640497817217828
10
135.61566822803695
20
33.055258614226105
10
107.94345425108297
20
39.695132226162606
42
-0.41421356237309437
10
106.46530543492857
20
42.106579110773843
10
106.58780080641351
20
42.617088546499346
42
0.41421356237308971
10
105.10965199025911
20
45.028535431110619
10
50.655312179539806
20
58.094708389506351
42
0.41421356237310131
10
48.243865294928554
20
56.616559573351935
10
48.121369923443581
20
56.10605013762644
42
-0.41421356237309509
10
45.709923038832336
20
54.627901321472038
10
17.35309321964635
20
61.432046670716403
10
-17.35309321964635
20
61.432046670716403
10
-45.709923038832315
20
54.627901321472045
42
-0.41421356237309725
10
-48.121369923443581
20
56.106050137626447
10
-48.243865294928554
20
56.61655957335195
42
0.41421356237309215
10
-50.655312179539806
20
58.094708389506366
10
-105.10965199025911
20
45.028535431110591
42
0.41421356237309537
10
-106.58780080641351
20
42.617088546499332
10
-106.46530543492857
20
42.106579110773836
42
-0.41421356237309515
10
-107.94345425108297
20
39.695132226162585
10
-135.61566822803695
20
33.055258614226098
42
0.38640497817217784
10
-136.20229948054816
20
32.193790293958699
10
-123.13780673528981
20
-60.76490582396044
42
0.37388467948479975
10
-122.37034898201507
20
-61.432046670716375
10
-114.02936413588176
20
-61.432046670716375
42
-0.41421356237309509
10
-112.02936413588176
20
-63.432046670716375
10
-112.02936413588178
20
-63.957046670716394
42
0.41421356237309509
10
-110.02936413588179
20
-65.95704667071638
10
-54.029364135881778
20
-65.95704667071638
42
0.41421356237309109
10
-52.029364135881778
20
-63.95704667071638
10
-52.029364135881771
20
-63.432046670716375
42
-0.41421356237309509
10
-50.029364135881771
20
-61.432046670716367
10
-31.999999999999993
20
-61.432046670716367
42
-0.4142135623730937
10
-30
20
-63.432046670716375
10
-30
20
-63.957046670716394
42
0.41421356237309243
10
-28
20
-65.957046670716394
10
28
20
-65.95704667071638
42
0.41421356237309048
10
29.999999999999996
20
-63.957046670716394
10
30
20
-63.432046670716375
42
-0.4142135623730937
10
31.999999999999993
20
-61.432046670716367
10
50.029364135881778
20
-61.432046670716367
42
-0.41421356237309509
10
52.029364135881778
20
-63.432046670716375
10
52.029364135881778
20
-63.957046670716394
42
0.41421356237309109
10
54.029364135881785
20
-65.95704667071638
10
110.02936413588179
20
-65.95704667071638
42
0.41421356237309243
10
112.02936413588176
20
-63.95704667071638
10
112.02936413588176
20
-63.432046670716375
42
-0.41421356237309509
10
114.02936413588178
20
-61.432046670716367
0
LWPOLYLINE
5
101
100
AcDbEntity
8
0
100
AcDbPolyline
90
8
70
1
43
0.0
10
-107.40250639770601
20
-17.704612690505861
42
0.41421356237309132
10
-106.8377858128552
20
-18.130160174396611
10
-93.964300919214793
20
-16.320909861915759
42
0.41421356237309997
10
-93.538753435324026
20
-15.756189277064943
10
-95.348003747804881
20
-2.8827043834245334
42
0.41421356237309059
10
-95.912724332655699
20
-2.4571568995337811
10
-108.78620922629609
20
-4.2664072120146344
42
0.41421356237309898
10
-109.21175671018688
20
-4.8311277968654576
0
LWPOLYLINE
5
102
100
AcDbEntity
8
0
100
AcDbPolyline
90
8
70
1
43
0.0
10
-102.10001125112751
20
-55.433826109559696
42
0.41421356237308993
10
-101.53529066627669
20
-55.859373593450449
10
-88.661805772636271
20
-54.050123280969586
42
0.41421356237309509
10
-88.236258288745518
20
-53.485402696118776
10
-90.045508601226373
20
-40.611917802478359
42
0.41421356237309065
10
-90.610229186077191
20
-40.18637031858762
10
-103.4837140797176
20
-41.995620631068469
42
0.4142135623731002
10
-103.90926156360835
20
-42.560341215919294
0
LWPOLYLINE
5
103
100
AcDbEntity
8
0
100
AcDbPolyline
90
8
70
1
43
0.0
10
-128.91836068052217
20
-1.4912535542682048
42
0.41421356237309059
10
-128.35364009567138
20
-1.9168010381589573
10
-115.48015520203096
20
-0.10755072567810615
42
0.41421356237310025
10
-115.0546077181402
20
0.45716985917271469
10
-116.86385803062106
20
13.330654752813127
42
0.41421356237309115
10
-117.42857861547186
20
13.756202236703881
10
-130.30206350911226
20
11.946951924223029
42
0.4142135623731002
10
-130.72761099300303
20
11.382231339372208
0
LWPOLYLINE
5
104
100
AcDbEntity
8
0
100
AcDbPolyline
90
8
70
1
43
0.0
10
-87.875087794856782
20
-19.769516794598346
42
0.41421356237309115
10
-87.310367210005978
20
-20.195064278489099
10
-74.436882316365541
20
-18.385813966008236
42
0.41421356237309553
10
-74.011334832474802
20
-17.821093381157418
10
-75.820585144955643
20
-4.9476084875170088
42
0.4142135623730957
10
-76.385305729806461
20
-4.5220610036262565
10
-89.258790623446885
20
-6.3313113161071097
42
0.41421356237310042
10
-89.684338107337638
20
-6.8960319009579329
0
LWPOLYLINE
5
105
100
AcDbEntity
8
0
100
AcDbPolyline
90
8
70
1
43
0.0
10
-28.961426039647936
20
-28.322304945566632
42
0.41421356237309509
10
-28.396705454797114
20
-28.747852429457382
10
-15.523220561156673
20
-26.938602116976533
42
0.41421356237309065
10
-15.097673077265924
20
-26.373881532125711
10
-16.906923389746776
20
-13.500396638485295
42
0.41421356237309098
10
-17.471643974597587
20
-13.074849154594542
10
-30.345128868238035
20
-14.884099467075391
42
0.41421356237309553
10
-30.770676352128788
20
-15.448820051926218
0
LWPOLYLINE
5
106
100
AcDbEntity
8
0
100
AcDbPolyline
90
8
70
1
43
0.0
10
-120.96461796065442
20
-58.085073682848957
42
0.41421356237308993
10
-120.39989737580362
20
-58.51062116673971
10
-107.5264124821632
20
-56.701370854258847
42
0.4142135623731002
10
-107.10086499827243
20
-56.136650269408022
10
-108.91011531075328
20
-43.26316537576762
42
0.41421356237310092
10
-109.47483589560412
20
-42.837617891876874
10
-122.34832078924453
20
-44.646868204357723
42
0.4142135623731002
10
-122.77386827313528
20
-45.211588789208541
0
LWPOLYLINE
5
107
100
AcDbEntity
8
0
100
AcDbPolyline
90
8
70
1
43
0.0
10
-47.494626802513686
20
-33.331628357546748
42
0.41421356237309509
10
-46.929906217662861
20
-33.757175841437501
10
-34.05642132402243
20
-31.947925528956659
42
0.41421356237309576
10
-33.630873840131677
20
-31.383204944105827
10
-35.440124152612526
20
-18.509720050465408
42
0.4142135623731022
10
-36.004844737463358
20
-18.084172566574665
10
-48.878329631103796
20
-19.89342287905551
42
0.41421356237309481
10
-49.303877114994556
20
-20.458143463906335
0
LWPOLYLINE
5
108
100
AcDbEntity
8
0
100
AcDbPolyline
90
8
70
1
43
0.0
10
-82.57259264827826
20
-57.498730213652173
42
0.41421356237308993
10
-82.007872063427456
20
-57.924277697542919
10
-69.134387169787033
20
-56.115027385062071
42
0.41421356237309576
10
-68.708839685896294
20
-55.550306800211253
10
-70.518089998377135
20
-42.676821906570844
42
0.41421356237309509
10
-71.082810583227953
20
-42.251274422680098
10
-83.956295476868377
20
-44.060524735160946
42
0.4142135623731002
10
-84.381842960759144
20
-44.625245320011764
0
LWPOLYLINE
5
109
100
AcDbEntity
8
0
100
AcDbPolyline
90
8
70
1
43
0.0
10
-112.70500154428453
20
20.024600728547959
42
0.41421356237308993
10
-112.14028095943371
20
19.59905324465721
10
-99.266796065793287
20
21.408303557138066
42
0.4142135623731002
10
-98.841248581902533
20
21.973024141988887
10
-100.65049889438339
20
34.846509035629303
42
0.4142135623731002
10
-101.21521947923421
20
35.272056519520049
10
-114.08870437287462
20
33.462806207039193
42
0.41421356237309764
10
-114.51425185676538
20
32.898085622188383
0
LWPOLYLINE
5
110
100
AcDbEntity
8
0
100
AcDbPolyline
90
8
70
1
43
0.0
10
-43.555957213119569
20
30.626627570522981
42
0.41421356237309259
10
-42.915100831063782
20
30.327791331792859
10
-30.69909676084697
20
34.774053195026568
42
0.41421356237308593
10
-30.400260522116863
20
35.414909577082348
10
-34.846522385350532
20
47.63091364729916
42
0.41421356237310963
10
-35.487378767406341
20
47.929749886029285
10
-47.703382837623145
20
43.483488022795569
42
0.41421356237308832
10
-48.002219076353263
20
42.842631640739796
0
LWPOLYLINE
5
111
100
AcDbEntity
8
0
100
AcDbPolyline
90
8
70
1
43
0.0
10
-50.145874375802947
20
-14.467021648019831
42
0.41421356237309653
10
-49.581153790952122
20
-14.892569131910582
10
-36.707668897311677
20
-13.083318819429735
42
0.41421356237309553
10
-36.282121413420924
20
-12.518598234578908
10
-38.091371725901794
20
0.35488665906150507
42
0.41421356237309065
10
-38.656092310752605
20
0.78043414295225766
10
-51.529577204393043
20
-1.0288161695285967
42
0.41421356237309481
10
-51.955124688283803
20
-1.5935367543794232
0
LWPOLYLINE
5
112
100
AcDbEntity
8
0
100
AcDbPolyline
90
8
70
1
43
0.0
10
-104.75125882441675
20
-36.569219400032793
42
0.41421356237308993
10
-104.18653823956595
20
-36.994766883923546
10
-91.313053345925539
20
-35.185516571442683
42
0.41421356237309509
10
-90.887505862034772
20
-34.620795986591872
10
-92.696756174515627
20
-21.747311092951449
42
0.4142135623731002
10
-93.26147675936646
20
-21.321763609060696
10
-106.13496165300685
20
-23.131013921541559
42
0.41421356237309509
10
-106.56050913689761
20
-23.69573450639237
0
LWPOLYLINE
5
113
100
AcDbEntity
8
0
100
AcDbPolyline
90
8
70
1
43
0.0
10
-85.223840221567542
20
-38.634123504125256
42
0.41421356237308993
10
-84.659119636716724
20
-39.059670988016009
10
-71.785634743076287
20
-37.25042067553516
42
0.41421356237309576
10
-71.360087259185548
20
-36.685700090684335
10
-73.169337571666389
20
-23.812215197043926
42
0.41421356237309509
10
-73.734058156517207
20
-23.386667713153173
10
-86.607543050157631
20
-25.195918025634025
42
0.4142135623731002
10
-87.033090534048384
20
-25.760638610484847
0
LWPOLYLINE
5
114
100
AcDbEntity
8
0
100
AcDbPolyline
90
8
70
1
43
0.0
10
-44.843379229224432
20
-52.196235067073673
42
0.41421356237309509
10
-44.278658644373614
20
-52.621782550964426
10
-31.405173750733177
20
-50.81253223848357
42
0.41421356237309576
10
-30.979626266842427
20
-50.247811653632738
10
-32.788876579323279
20
-37.374326759992336
42
0.4142135623731002
10
-33.353597164174104
20
-36.948779276101583
10
-46.227082057814535
20
-38.758029588582438
42
0.41421356237309509
10
-46.652629541705295
20
-39.322750173433263
0
LWPOLYLINE
5
115
100
AcDbEntity
8
0
100
AcDbPolyline
90
8
70
1
43
0.0
10
-26.310178466358668
20
-47.186911655093546
42
0.41421356237309509
10
-25.745457881507846
20
-47.612459138984292
10
-12.871972987867423
20
-45.803208826503443
42
0.41421356237309065
10
-12.446425503976673
20
-45.238488241652625
10
-14.255675816457527
20
-32.365003348012216
42
0.41421356237308971
10
-14.820396401308336
20
-31.939455864121467
10
-27.693881294948785
20
-33.748706176602312
42
0.41421356237309576
10
-28.119428778839538
20
-34.313426761453137
0
LWPOLYLINE
5
116
100
AcDbEntity
8
0
100
AcDbPolyline
90
8
70
1
43
0.0
10
-131.56960825381142
20
17.373353155258712
42
0.41421356237309115
10
-131.00488766896061
20
16.947805671367956
10
-118.13140277532021
20
18.757055983848815
42
0.41421356237309886
10
-117.70585529142946
20
19.321776568699633
10
-119.5151056039103
20
32.195261462340042
42
0.41421356237308993
10
-120.07982618876112
20
32.620808946230795
10
-132.95331108240154
20
30.811558633749947
42
0.41421356237310158
10
-133.37885856629228
20
30.246838048899125
0
LWPOLYLINE
5
117
100
AcDbEntity
8
0
100
AcDbPolyline
90
8
70
1
43
0.0
10
-110.05375397099526
20
1.1599940190210503
42
0.41421356237309065
10
-109.48903338614444
20
0.73444653513029756
10
-96.615548492504047
20
2.5436968476111508
42
0.41421356237310014
10
-96.19000100861328
20
3.1084174324619696
10
-97.999251321094135
20
15.981902326102382
42
0.41421356237310147
10
-98.563971905944953
20
16.407449809993135
10
-111.43745679958536
20
14.598199497512285
42
0.41421356237310053
10
-111.86300428347613
20
14.033478912661462
0
LWPOLYLINE
5
118
100
AcDbEntity
8
0
100
AcDbPolyline
90
8
70
1
43
0.0
10
-34.263921186226433
20
9.4069084734871957
42
0.41421356237309509
10
-33.699200601375615
20
8.9813609895964461
10
-20.825715707735174
20
10.7906113020773
42
0.41421356237309553
10
-20.400168223844425
20
11.355331886928127
10
-22.209418536325277
20
24.22881678056854
42
0.4142135623731002
10
-22.774139121176106
20
24.654364264459293
10
-35.647624014816536
20
22.845113951978433
42
0.41421356237309542
10
-36.073171498707289
20
22.280393367127612
0
LWPOLYLINE
5
119
100
AcDbEntity
8
0
100
AcDbPolyline
90
8
70
1
43
0.0
10
-93.840394834757603
20
22.675848301837217
42
0.41421356237308993
10
-93.275674249906785
20
22.250300817946464
10
-80.402189356266376
20
24.059551130427323
42
0.41421356237310092
10
-79.976641872375623
20
24.624271715278141
10
-81.785892184856479
20
37.497756608918557
42
0.41421356237308993
10
-82.350612769707283
20
37.923304092809303
10
-95.224097663347692
20
36.114053780328454
42
0.41421356237310053
10
-95.649645147238459
20
35.549333195477629
0
LWPOLYLINE
5
120
100
AcDbEntity
8
0
100
AcDbPolyline
90
8
70
1
43
0.0
10
-22.875131799294188
20
39.085160088355963
42
0.41421356237309725
10
-22.186148119099371
20
38.926095672394339
10
-11.161522869065831
20
45.815046107425992
42
0.41421356237309509
10
-11.002458453104214
20
46.504029787620816
10
-17.891408888135892
20
57.52865503765436
42
0.41421356237311036
10
-18.580392568330733
20
57.687719453615983
10
-29.605017818364232
20
50.798769018584309
42
0.41421356237310442
10
-29.764082234325851
20
50.109785338389507
0
LWPOLYLINE
5
121
100
AcDbEntity
8
0
100
AcDbPolyline
90
8
70
1
43
0.0
10
-123.61586553394368
20
-39.220466973322047
42
0.41421356237308993
10
-123.05114494909287
20
-39.646014457212793
10
-110.17766005545244
20
-37.836764144731944
42
0.4142135623731002
10
-109.75211257156168
20
-37.272043559881126
10
-111.56136288404255
20
-24.39855866624071
42
0.41421356237308993
10
-112.12608346889337
20
-23.973011182349957
10
-124.99956836253376
20
-25.782261494830809
42
0.41421356237309509
10
-125.42511584642453
20
-26.34698207968162
0
LWPOLYLINE
5
122
100
AcDbEntity
8
0
100
AcDbPolyline
90
8
70
1
43
0.0
10
-66.027827565379454
20
-38.340951769526875
42
0.41421356237309509
10
-65.463106980528636
20
-38.766499253417628
10
-52.589622086888212
20
-36.957248940936765
42
0.41421356237308993
10
-52.164074602997459
20
-36.392528356085954
10
-53.973324915478315
20
-23.519043462445531
42
0.41421356237309509
10
-54.538045500329133
20
-23.093495978554781
10
-67.411530393969556
20
-24.902746291035626
42
0.41421356237310092
10
-67.83707787786031
20
-25.467466875886462
0
LWPOLYLINE
5
123
100
AcDbEntity
8
0
100
AcDbPolyline
90
8
70
1
43
0.0
10
-71.330322711957962
20
-0.61173835047304215
42
0.41421356237309576
10
-70.765602127107144
20
-1.0372858343637947
10
-57.892117233466713
20
0.77196447811706892
42
0.41421356237309226
10
-57.46656974957596
20
1.3366850629678817
10
-59.275820062056823
20
14.210169956608299
42
0.41421356237309637
10
-59.840540646907641
20
14.635717440499052
10
-72.714025540548064
20
12.826467128018201
42
0.41421356237309553
10
-73.139573024438818
20
12.261746543167376
0
LWPOLYLINE
5
124
100
AcDbEntity
8
0
100
AcDbPolyline
90
8
70
1
43
0.0
10
-90.526335368146036
20
-0.90491008507142967
42
0.41421356237309065
10
-89.961614783295232
20
-1.3304575689621823
10
-77.088129889654795
20
0.47879274351867673
42
0.41421356237309553
10
-76.662582405764056
20
1.0435133283694942
10
-78.471832718244897
20
13.916998222009909
42
0.41421356237308993
10
-79.036553303095715
20
14.34254570590066
10
-91.910038196736124
20
12.533295393419809
42
0.41421356237310053
10
-92.335585680626892
20
11.968574808568986
0
LWPOLYLINE
5
125
100
AcDbEntity
8
0
100
AcDbPolyline
90
8
70
1
43
0.0
10
-63.3765799920902
20
-57.205558479053778
42
0.41421356237309509
10
-62.811859407239375
20
-57.631105962944531
10
-49.938374513598951
20
-55.821855650463668
42
0.41421356237308993
10
-49.512827029708205
20
-55.257135065612857
10
-51.322077342189054
20
-42.383650171972462
42
0.41421356237309509
10
-51.886797927039872
20
-41.958102688081709
10
-64.760282820680303
20
-43.767353000562551
42
0.41421356237309576
10
-65.185830304571056
20
-44.332073585413383
0
LWPOLYLINE
5
126
100
AcDbEntity
8
0
100
AcDbPolyline
90
8
70
1
43
0.0
10
-52.105279291975997
20
28.0364224903612
42
0.41421356237309509
10
-51.679731808085243
20
28.601143075212022
10
-53.488982120566106
20
41.474627968852438
42
0.41421356237308993
10
-54.053702705416917
20
41.900175452743191
10
-76.359490953820796
20
38.765301353617701
42
0.41421356237309576
10
-76.785038437711535
20
38.200580768766883
10
-74.975788125230679
20
25.327095875126471
42
0.41421356237309509
10
-74.411067540379861
20
24.901548391235721
0
LWPOLYLINE
5
127
100
AcDbEntity
8
0
100
AcDbPolyline
90
8
70
1
43
0.0
10
-52.797121949092194
20
4.3975850615070797
42
0.4142135623730957
10
-52.232401364241376
20
3.9720375776163275
10
-39.358916470600946
20
5.7812878900971771
42
0.41421356237309553
10
-38.933368986710192
20
6.3460084749480039
10
-40.742619299191048
20
19.219493368588417
42
0.41421356237308993
10
-41.307339884041866
20
19.64504085247917
10
-54.180824777682304
20
17.835790539998321
42
0.41421356237309481
10
-54.606372261573064
20
17.271069955147492
0
LWPOLYLINE
5
128
100
AcDbEntity
8
0
100
AcDbPolyline
90
8
70
1
43
0.0
10
-31.612673612937186
20
-9.4576982360397093
42
0.41421356237309587
10
-31.047953028086365
20
-9.8832457199304606
10
-18.174468134445924
20
-8.0739954074496119
42
0.41421356237309553
10
-17.748920650555174
20
-7.5092748225987869
10
-19.558170963036027
20
5.3642100710416232
42
0.41421356237309059
10
-20.122891547886837
20
5.7897575549323754
10
-32.996376441527289
20
3.9805072424515231
42
0.41421356237309553
10
-33.421923925418035
20
3.4157866576006954
0
LWPOLYLINE
5
129
100
AcDbEntity
8
0
100
AcDbPolyline
90
8
70
1
43
0.0
10
-126.26711310723293
20
-20.355860263795115
42
0.41421356237308993
10
-125.70239252238211
20
-20.781407747685865
10
-112.82890762874172
20
-18.972157435205013
42
0.41421356237309509
10
-112.40336014485095
20
-18.407436850354202
10
-114.21261045733181
20
-5.5339519567137883
42
0.41421356237309059
10
-114.77733104218261
20
-5.108404472823036
10
-127.65081593582302
20
-6.9176547853038874
42
0.41421356237310025
10
-128.07636341971377
20
-7.482375370154708
0
LWPOLYLINE
5
130
100
AcDbEntity
8
0
100
AcDbPolyline
90
8
70
1
43
0.0
10
-68.679075138668708
20
-19.476345059999954
42
0.41421356237309653
10
-68.11435455381789
20
-19.901892543890703
10
-55.240869660177466
20
-18.092642231409844
42
0.41421356237309481
10
-54.815322176286713
20
-17.527921646559026
10
-56.624572488767562
20
-4.6544367529186168
42
0.4142135623730957
10
-57.189293073618387
20
-4.2288892690278646
10
-70.06277796725881
20
-6.0381395815087142
42
0.41421356237309553
10
-70.488325451149564
20
-6.602860166359541
0
LWPOLYLINE
5
131
100
AcDbEntity
8
0
100
AcDbPolyline
90
8
70
1
43
0.0
10
106.8377858128552
20
-18.130160174396611
42
0.41421356237308699
10
107.40250639770601
20
-17.704612690505861
10
109.21175671018686
20
-4.8311277968654487
42
0.41421356237307055
10
108.78620922629611
20
-4.2664072120146335
10
95.912724332655699
20
-2.4571568995337811
42
0.41421356237308765
10
95.348003747804881
20
-2.8827043834245325
10
93.538753435324026
20
-15.756189277064951
42
0.41421356237308365
10
93.964300919214764
20
-16.320909861915762
0
LWPOLYLINE
5
132
100
AcDbEntity
8
0
100
AcDbPolyline
90
8
70
1
43
0.0
10
101.53529066627669
20
-55.859373593450449
42
0.41421356237308993
10
102.10001125112751
20
-55.433826109559696
10
103.90926156360835
20
-42.56034121591928
42
0.41421356237308482
10
103.48371407971761
20
-41.995620631068469
10
90.610229186077191
20
-40.186370318587606
42
0.41421356237309509
10
90.045508601226373
20
-40.611917802478374
10
88.236258288745518
20
-53.485402696118776
42
0.41421356237309509
10
88.661805772636271
20
-54.050123280969586
0
LWPOLYLINE
5
133
100
AcDbEntity
8
0
100
AcDbPolyline
90
8
70
1
43
0.0
10
128.35364009567138
20
-1.9168010381589573
42
0.41421356237308815
10
128.91836068052217
20
-1.4912535542682059
10
130.72761099300303
20
11.382231339372218
42
0.41421356237308254
10
130.30206350911229
20
11.946951924223029
10
117.42857861547186
20
13.756202236703881
42
0.41421356237308837
10
116.86385803062106
20
13.330654752813128
10
115.0546077181402
20
0.45716985917270603
42
0.4142135623730821
10
115.48015520203094
20
-0.10755072567810497
0
LWPOLYLINE
5
134
100
AcDbEntity
8
0
100
AcDbPolyline
90
8
70
1
43
0.0
10
87.310367210005978
20
-20.195064278489099
42
0.41421356237311036
10
87.875087794856782
20
-19.769516794598346
10
89.684338107337638
20
-6.8960319009579241
42
0.41421356237308143
10
89.258790623446885
20
-6.3313113161071088
10
76.385305729806461
20
-4.5220610036262565
42
0.41421356237309509
10
75.820585144955658
20
-4.9476084875170079
10
74.011334832474788
20
-17.821093381157418
42
0.41421356237309431
10
74.436882316365541
20
-18.385813966008229
0
LWPOLYLINE
5
135
100
AcDbEntity
8
0
100
AcDbPolyline
90
8
70
1
43
0.0
10
28.396705454797114
20
-28.747852429457382
42
0.41421356237309509
10
28.961426039647936
20
-28.322304945566632
10
30.770676352128792
20
-15.448820051926218
42
0.41421356237310458
10
30.345128868238028
20
-14.884099467075389
10
17.471643974597594
20
-13.074849154594544
42
0.41421356237309132
10
16.906923389746776
20
-13.500396638485292
10
15.097673077265917
20
-26.373881532125701
42
0.41421356237309082
10
15.523220561156666
20
-26.93860211697654
0
LWPOLYLINE
5
136
100
AcDbEntity
8
0
100
AcDbPolyline
90
8
70
1
43
0.0
10
120.39989737580362
20
-58.51062116673971
42
0.41421356237311491
10
120.96461796065441
20
-58.085073682848957
10
122.77386827313528
20
-45.211588789208534
42
0.41421356237309431
10
122.34832078924453
20
-44.64686820435773
10
109.47483589560409
20
-42.837617891876867
42
0.41421356237308993
10
108.91011531075328
20
-43.26316537576762
10
107.10086499827243
20
-56.136650269408037
42
0.41421356237309509
10
107.5264124821632
20
-56.701370854258847
0
LWPOLYLINE
5
137
100
AcDbEntity
8
0
100
AcDbPolyline
90
8
70
1
43
0.0
10
46.929906217662861
20
-33.757175841437501
42
0.41421356237309281
10
47.494626802513693
20
-33.331628357546748
10
49.303877114994556
20
-20.458143463906335
42
0.41421356237310092
10
48.878329631103796
20
-19.893422879055507
10
36.004844737463351
20
-18.084172566574658
42
0.41421356237309748
10
35.440124152612526
20
-18.509720050465415
10
33.63087384013167
20
-31.383204944105827
42
0.41421356237309764
10
34.056421324022438
20
-31.947925528956659
0
LWPOLYLINE
5
138
100
AcDbEntity
8
0
100
AcDbPolyline
90
8
70
1
43
0.0
10
82.007872063427456
20
-57.924277697542919
42
0.41421356237308993
10
82.57259264827826
20
-57.498730213652173
10
84.381842960759144
20
-44.625245320011757
42
0.41421356237309576
10
83.956295476868377
20
-44.060524735160939
10
71.082810583227953
20
-42.251274422680098
42
0.41421356237309431
10
70.51808999837715
20
-42.676821906570844
10
68.70883968589628
20
-55.550306800211253
42
0.41421356237309431
10
69.134387169787033
20
-56.115027385062064
0
LWPOLYLINE
5
139
100
AcDbEntity
8
0
100
AcDbPolyline
90
8
70
1
43
0.0
10
112.14028095943371
20
19.59905324465721
42
0.41421356237311346
10
112.70500154428453
20
20.024600728547959
10
114.51425185676538
20
32.898085622188383
42
0.41421356237309315
10
114.08870437287462
20
33.462806207039201
10
101.21521947923419
20
35.272056519520049
42
0.41421356237307222
10
100.65049889438339
20
34.846509035629303
10
98.841248581902533
20
21.973024141988876
42
0.41421356237307849
10
99.266796065793287
20
21.408303557138069
0
LWPOLYLINE
5
140
100
AcDbEntity
8
0
100
AcDbPolyline
90
8
70
1
43
0.0
10
42.915100831063782
20
30.327791331792859
42
0.41421356237309592
10
43.555957213119569
20
30.626627570522981
10
48.002219076353256
20
42.842631640739796
42
0.41421356237310175
10
47.703382837623145
20
43.483488022795584
10
35.487378767406319
20
47.929749886029285
42
0.41421356237308216
10
34.846522385350568
20
47.63091364729916
10
30.400260522116866
20
35.414909577082348
42
0.41421356237308188
10
30.699096760846963
20
34.774053195026568
0
LWPOLYLINE
5
141
100
AcDbEntity
8
0
100
AcDbPolyline
90
8
70
1
43
0.0
10
49.581153790952122
20
-14.892569131910582
42
0.41421356237309509
10
50.145874375802947
20
-14.467021648019831
10
51.955124688283803
20
-1.593536754379423
42
0.41421356237310269
10
51.529577204393043
20
-1.0288161695285947
10
38.656092310752619
20
0.78043414295225766
42
0.41421356237309409
10
38.091371725901794
20
0.35488665906150629
10
36.282121413420924
20
-12.518598234578908
42
0.41421356237310425
10
36.707668897311684
20
-13.083318819429731
0
LWPOLYLINE
5
142
100
AcDbEntity
8
0
100
AcDbPolyline
90
8
70
1
43
0.0
10
104.18653823956595
20
-36.994766883923546
42
0.41421356237311047
10
104.75125882441675
20
-36.569219400032793
10
106.56050913689761
20
-23.69573450639237
42
0.41421356237308321
10
106.13496165300687
20
-23.131013921541552
10
93.261476759366445
20
-21.321763609060696
42
0.41421356237311047
10
92.696756174515627
20
-21.747311092951449
10
90.887505862034772
20
-34.620795986591872
42
0.41421356237307005
10
91.313053345925525
20
-35.185516571442676
0
LWPOLYLINE
5
143
100
AcDbEntity
8
0
100
AcDbPolyline
90
8
70
1
43
0.0
10
84.659119636716724
20
-39.059670988016009
42
0.41421356237308699
10
85.223840221567542
20
-38.634123504125256
10
87.033090534048384
20
-25.760638610484836
42
0.41421356237309281
10
86.607543050157631
20
-25.195918025634025
10
73.734058156517207
20
-23.386667713153173
42
0.41421356237308915
10
73.169337571666404
20
-23.812215197043916
10
71.360087259185534
20
-36.685700090684335
42
0.41421356237309281
10
71.785634743076287
20
-37.25042067553516
0
LWPOLYLINE
5
144
100
AcDbEntity
8
0
100
AcDbPolyline
90
8
70
1
43
0.0
10
44.278658644373614
20
-52.621782550964426
42
0.41421356237309509
10
44.843379229224432
20
-52.196235067073673
10
46.652629541705295
20
-39.322750173433263
42
0.41421356237309509
10
46.227082057814535
20
-38.758029588582438
10
33.353597164174097
20
-36.948779276101583
42
0.41421356237309509
10
32.788876579323279
20
-37.374326759992336
10
30.979626266842423
20
-50.247811653632738
42
0.41421356237308948
10
31.405173750733187
20
-50.812532238483563
0
LWPOLYLINE
5
145
100
AcDbEntity
8
0
100
AcDbPolyline
90
8
70
1
43
0.0
10
25.745457881507846
20
-47.612459138984292
42
0.41421356237309509
10
26.310178466358668
20
-47.186911655093546
10
28.119428778839541
20
-34.313426761453137
42
0.41421356237309764
10
27.693881294948778
20
-33.748706176602312
10
14.820396401308344
20
-31.939455864121467
42
0.41421356237308993
10
14.255675816457526
20
-32.365003348012209
10
12.446425503976666
20
-45.238488241652618
42
0.41421356237308049
10
12.871972987867416
20
-45.80320882650345
0
LWPOLYLINE
5
146
100
AcDbEntity
8
0
100
AcDbPolyline
90
8
70
1
43
0.0
10
131.00488766896061
20
16.947805671367956
42
0.41421356237311474
10
131.56960825381142
20
17.373353155258712
10
133.37885856629231
20
30.246838048899136
42
0.41421356237309281
10
132.95331108240154
20
30.811558633749947
10
120.07982618876112
20
32.620808946230795
42
0.41421356237311047
10
119.5151056039103
20
32.195261462340042
10
117.70585529142946
20
19.321776568699626
42
0.41421356237308143
10
118.1314027753202
20
18.757055983848815
0
LWPOLYLINE
5
147
100
AcDbEntity
8
0
100
AcDbPolyline
90
8
70
1
43
0.0
10
109.48903338614444
20
0.73444653513029756
42
0.41421356237311363
10
110.05375397099526
20
1.1599940190210511
10
111.86300428347613
20
14.033478912661471
42
0.41421356237307905
10
111.43745679958536
20
14.598199497512283
10
98.563971905944939
20
16.407449809993135
42
0.41421356237311346
10
97.999251321094135
20
15.981902326102384
10
96.19000100861328
20
3.1084174324619607
42
0.41421356237309237
10
96.615548492504047
20
2.5436968476111521
0
LWPOLYLINE
5
148
100
AcDbEntity
8
0
100
AcDbPolyline
90
8
70
1
43
0.0
10
33.699200601375615
20
8.9813609895964461
42
0.41421356237309398
10
34.26392118622644
20
9.4069084734871957
10
36.073171498707296
20
22.280393367127612
42
0.41421356237309837
10
35.647624014816543
20
22.845113951978441
10
22.774139121176095
20
24.654364264459293
42
0.41421356237309509
10
22.209418536325277
20
24.22881678056854
10
20.400168223844418
20
11.355331886928127
42
0.41421356237310458
10
20.825715707735185
20
10.790611302077298
0
LWPOLYLINE
5
149
100
AcDbEntity
8
0
100
AcDbPolyline
90
8
70
1
43
0.0
10
93.275674249906785
20
22.250300817946464
42
0.41421356237308993
10
93.840394834757603
20
22.675848301837217
10
95.649645147238459
20
35.549333195477637
42
0.41421356237307111
10
95.22409766334772
20
36.114053780328454
10
82.350612769707283
20
37.923304092809303
42
0.41421356237308699
10
81.785892184856479
20
37.497756608918557
10
79.976641872375609
20
24.624271715278134
42
0.41421356237308105
10
80.402189356266376
20
24.059551130427323
0
LWPOLYLINE
5
150
100
AcDbEntity
8
0
100
AcDbPolyline
90
8
70
1
43
0.0
10
22.186148119099371
20
38.926095672394339
42
0.41421356237310086
10
22.875131799294188
20
39.085160088355963
10
29.764082234325851
20
50.1097853383895
42
0.41421356237311019
10
29.605017818364235
20
50.798769018584309
10
18.580392568330716
20
57.687719453615983
42
0.41421356237310869
10
17.89140888813591
20
57.528655037654353
10
11.002458453104216
20
46.504029787620816
42
0.4142135623730982
10
11.161522869065848
20
45.815046107425999
0
LWPOLYLINE
5
151
100
AcDbEntity
8
0
100
AcDbPolyline
90
8
70
1
43
0.0
10
123.05114494909287
20
-39.646014457212793
42
0.41421356237308699
10
123.61586553394368
20
-39.220466973322047
10
125.42511584642453
20
-26.34698207968162
42
0.41421356237309348
10
124.99956836253376
20
-25.782261494830799
10
112.12608346889337
20
-23.973011182349957
42
0.41421356237308177
10
111.56136288404255
20
-24.398558666240699
10
109.75211257156168
20
-37.272043559881133
42
0.41421356237309209
10
110.17766005545244
20
-37.83676414473193
0
LWPOLYLINE
5
152
100
AcDbEntity
8
0
100
AcDbPolyline
90
8
70
1
43
0.0
10
65.463106980528636
20
-38.766499253417628
42
0.41421356237309281
10
66.027827565379468
20
-38.340951769526875
10
67.83707787786031
20
-25.467466875886451
42
0.41421356237309431
10
67.411530393969556
20
-24.902746291035633
10
54.538045500329133
20
-23.093495978554781
42
0.41421356237309209
10
53.973324915478315
20
-23.519043462445531
10
52.164074602997459
20
-36.392528356085947
42
0.41421356237309281
10
52.589622086888212
20
-36.957248940936765
0
LWPOLYLINE
5
153
100
AcDbEntity
8
0
100
AcDbPolyline
90
8
70
1
43
0.0
10
70.765602127107144
20
-1.0372858343637947
42
0.41421356237309315
10
71.330322711957962
20
-0.61173835047304337
10
73.139573024438832
20
12.261746543167376
42
0.41421356237310969
10
72.714025540548064
20
12.8264671280182
10
59.840540646907641
20
14.635717440499052
42
0.41421356237309775
10
59.275820062056823
20
14.210169956608299
10
57.46656974957596
20
1.3366850629678861
42
0.41421356237309931
10
57.89211723346672
20
0.77196447811706648
0
LWPOLYLINE
5
154
100
AcDbEntity
8
0
100
AcDbPolyline
90
8
70
1
43
0.0
10
89.961614783295232
20
-1.3304575689621823
42
0.41421356237308832
10
90.526335368146036
20
-0.90491008507143089
10
92.335585680626892
20
11.968574808568995
42
0.41421356237306872
10
91.910038196736139
20
12.533295393419808
10
79.036553303095729
20
14.34254570590066
42
0.41421356237309137
10
78.471832718244912
20
13.916998222009909
10
76.662582405764041
20
1.043513328369494
42
0.41421356237309531
10
77.088129889654795
20
0.47879274351867451
0
LWPOLYLINE
5
155
100
AcDbEntity
8
0
100
AcDbPolyline
90
8
70
1
43
0.0
10
62.811859407239375
20
-57.631105962944531
42
0.41421356237309509
10
63.3765799920902
20
-57.205558479053778
10
65.185830304571056
20
-44.332073585413383
42
0.41421356237310608
10
64.760282820680303
20
-43.767353000562551
10
51.886797927039872
20
-41.958102688081709
42
0.41421356237309509
10
51.322077342189054
20
-42.383650171972462
10
49.512827029708205
20
-55.25713506561285
42
0.4142135623731002
10
49.938374513598959
20
-55.821855650463668
0
LWPOLYLINE
5
156
100
AcDbEntity
8
0
100
AcDbPolyline
90
8
70
1
43
0.0
10
51.679731808085243
20
28.601143075212022
42
0.41421356237309764
10
52.105279291976004
20
28.036422490361204
10
74.411067540379861
20
24.901548391235721
42
0.41421356237309431
10
74.975788125230679
20
25.327095875126471
10
76.785038437711549
20
38.200580768766883
42
0.41421356237309792
10
76.359490953820782
20
38.765301353617701
10
54.053702705416924
20
41.900175452743191
42
0.4142135623731002
10
53.488982120566106
20
41.474627968852431
0
LWPOLYLINE
5
157
100
AcDbEntity
8
0
100
AcDbPolyline
90
8
70
1
43
0.0
10
52.232401364241376
20
3.9720375776163275
42
0.41421356237309642
10
52.797121949092194
20
4.3975850615070788
10
54.606372261573064
20
17.271069955147492
42
0.41421356237310403
10
54.180824777682304
20
17.835790539998321
10
41.307339884041873
20
19.64504085247917
42
0.4142135623730937
10
40.742619299191048
20
19.21949336858842
10
38.933368986710192
20
6.3460084749480039
42
0.41421356237309115
10
39.358916470600938
20
5.7812878900971771
0
LWPOLYLINE
5
158
100
AcDbEntity
8
0
100
AcDbPolyline
90
8
70
1
43
0.0
10
31.047953028086365
20
-9.8832457199304606
42
0.41421356237309437
10
31.612673612937186
20
-9.4576982360397093
10
33.421923925418042
20
3.4157866576006968
42
0.4142135623731012
10
32.996376441527275
20
3.9805072424515231
10
20.122891547886844
20
5.7897575549323754
42
0.41421356237309431
10
19.558170963036027
20
5.3642100710416241
10
17.748920650555167
20
-7.509274822598786
42
0.41421356237308804
10
18.174468134445917
20
-8.0739954074496154
0
LWPOLYLINE
5
159
100
AcDbEntity
8
0
100
AcDbPolyline
90
8
70
1
43
0.0
10
125.70239252238211
20
-20.781407747685865
42
0.41421356237311047
10
126.26711310723293
20
-20.355860263795115
10
128.07636341971377
20
-7.4823753701546991
42
0.41421356237307022
10
127.65081593582303
20
-6.9176547853038883
10
114.77733104218261
20
-5.108404472823036
42
0.41421356237311274
10
114.21261045733181
20
-5.5339519567137874
10
112.40336014485095
20
-18.407436850354202
42
0.41421356237308321
10
112.82890762874169
20
-18.97215743520502
0
LWPOLYLINE
5
160
100
AcDbEntity
8
0
100
AcDbPolyline
90
8
70
1
43
0.0
10
68.11435455381789
20
-19.901892543890703
42
0.41421356237309281
10
68.679075138668708
20
-19.476345059999954
10
70.488325451149564
20
-6.602860166359541
42
0.41421356237309725
10
70.06277796725881
20
-6.0381395815087124
10
57.189293073618387
20
-4.2288892690278646
42
0.4142135623730917
10
56.624572488767562
20
-4.6544367529186159
10
54.815322176286713
20
-17.527921646559026
42
0.41421356237309398
10
55.240869660177466
20
-18.092642231409847
0
ENDSEC
0
SECTION
2
OBJECTS
0
DICTIONARY
5
C
100
AcDbDictionary
3
ACAD_GROUP
350
D
3
ACAD_MLINESTYLE
350
17
0
DICTIONARY
5
D
100
AcDbDictionary
0
DICTIONARY
5
1A
330
C
100
AcDbDictionary
0
DICTIONARY
5
17
100
AcDbDictionary
0
ENDSEC
0
EOF
